<svg version="1.2" xmlns="http://www.w3.org/2000/svg" viewBox="0 0 1922 1080" width="500" height="281">
	<title>logo-white-svg</title>
	<style>
		.s0 { fill: #bc0000 } 
		.s1 { fill: #ffffff } 
	</style>
	<path id="Layer" class="s0" d="m115.5 1064v-231h52.2v231zm160.7-218.5v158.1q0 11.9 4.6 16.8 4.6 4.7 12.5 4.3 5 0 10.9-1.6 6-1.7 12.9-5l10.5 35.7q-9.9 5.9-21.7 9.2-11.9 3.3-24.5 3.3-15.8 0-28.7-5.9-12.5-6-19.8-18.2-7.2-12.2-7.2-30.3v-166.4zm-75.3 82.9v-34h123.5v34zm265.3 58.7h-45.2q-14.6 0-21.8 5-7.3 4.9-7.3 15.8 0 10.6 7.3 16.8 7.6 6 20.4 6 11.3 0 19.8-3.7 9-3.9 14.6-10.2 5.9-6.6 7.2-15.2l7.6 28.4q-7.6 17.8-23.7 27.1-16.2 9.2-39.6 9.2-18.9 0-32.7-7.3-13.5-7.2-21.1-19.8-7.3-12.5-7.3-28.3 0-24.8 17.5-39 17.5-14.2 50.2-14.5h54.1zm-5 76.9l-0.3-109.9q0-14.5-9.6-22.8-9.2-8.2-27.4-8.2-11.8 0-25.4 4.3-13.5 3.9-27.4 11.5l-15.8-33q13.2-6.9 25.7-11.5 12.6-4.6 25.8-6.9 13.2-2.7 28.7-2.7 36 0 55.4 16.8 19.5 16.9 19.8 46.6l0.4 115.8zm220.1 0v-97q0-17.5-9.6-27.4-9.2-9.9-25.4-9.9-18.8 0.3-29.7 13.5-10.9 13.2-10.9 33.3h-12.9q0-31 8.9-51.1 9.3-20.5 25.8-30.4 16.8-10.2 39.6-10.2 19.8 0 34.3 8.6 14.8 8.2 22.8 23.4 7.9 15.2 7.9 36v111.2zm-126.4 0v-177.2h50.8v177.2zm349.5 0v-97q0-17.5-9.6-27.4-9.2-9.9-25.4-9.9-19.1 0.3-30 13.5-10.9 13.2-10.9 33.3h-12.6q0-31 9-51.1 8.9-20.5 25.4-30.4 16.8-10.2 39.6-10.2 20.1 0 34.6 8.6 14.9 8.2 22.8 23.4 7.9 15.2 7.9 36v111.2zm-126.7 0v-244.9h50.8v244.9zm329-76.9h-45.2q-14.5 0-21.8 5-7.2 4.9-7.2 15.8 0 10.6 7.2 16.8 7.6 6 20.5 6 11.2 0 19.8-3.7 8.9-3.9 14.5-10.2 5.9-6.6 7.3-15.2l7.5 28.4q-7.5 17.8-23.7 27.1-16.2 9.2-39.6 9.2-18.8 0-32.7-7.3-13.5-7.2-21.1-19.8-7.3-12.5-7.3-28.3 0-24.8 17.5-39 17.5-14.2 50.2-14.5h54.1zm-4.9 76.9l-0.4-109.9q0-14.5-9.5-22.8-9.3-8.2-27.4-8.2-11.9 0-25.4 4.3-13.6 3.9-27.4 11.5l-15.9-33q13.2-6.9 25.8-11.5 12.5-4.6 25.7-7 13.2-2.6 28.7-2.6 36 0 55.5 16.8 19.4 16.9 19.8 46.6l0.3 115.8zm120.4-103h89.1q-0.3-12.2-5.2-20.8-4.7-8.9-13.6-13.8-8.9-5-20.4-5-12.9 0-22.5 6.6-9.5 6.6-14.8 18.2-5.3 11.5-5.3 26.7 0 17.2 5.9 29.4 6 12.2 16.9 18.8 10.9 6.6 25 6.6 25.8 0 44.9-19.1l26.8 26.4q-13.2 14.8-32.7 22.7-19.2 8-43.2 8-28.4 0-49.2-11.3-20.8-11.2-32.4-31.3-11.2-20.5-11.2-47.2 0-27.4 11.6-47.5 11.5-20.5 32-31.7 20.8-11.2 47.8-11.6 31.4 0 51.2 13.2 20.1 12.9 29 36.7 9.3 23.4 7 55.7h-136.7zm22.5-99.3l36.9-49.8 44.9 17.5-44.9 35.6zm272.3 202.3v-97q0-17.5-9.3-27.4-8.9-10.2-24.7-10.2-18.5 0.6-29 13.8-10.6 13.2-10.6 33.3h-12.9q0-31 8.9-51.1 8.9-20.5 25.1-30.4 16.5-10.2 39-10.2 19.8 0 33.9 8.6 14.6 8.2 22.2 23.4 7.9 15.2 7.9 36v111.2zm124.1 0v-97q0-17.5-9.3-27.4-9.2-10.2-25.1-10.2-18.1 0.6-28.7 13.8-10.5 13.2-10.5 33.3h-12.9q0-31 8.9-51.1 8.9-20.5 25.1-30.4 16.5-10.2 38.9-10.2 19.8 0 34 8.6 14.5 8.2 22.1 23.4 8 15.2 8 36v111.2zm-248.5 0v-177.2h50.8v177.2z"/>
	<path id="Layer" class="s1" d="m-0.7 665.9v-625.7h476.4v113.5h-335.2v141.2h301.3v113.5h-301.3v144h345.1v113.5zm752.6-591.8v428.2q0 32.2 12.5 45.6 12.5 12.5 34 11.6 13.4 0 29.5-4.5 16.1-4.4 34.8-13.4l28.6 96.6q-26.8 16.1-59 25-32.1 8.9-66.1 8.9-42.9 0-77.8-16.1-33.9-16-53.6-49.1-19.7-33.1-19.7-82.3v-450.5zm-203.8 132.3h334.3v92.1h-334.3zm495.2 180.6h241.4q-0.9-33.1-14.3-56.4-12.5-24.1-36.7-37.5-24.1-13.4-55.4-13.4-34.9 0-60.8 17.9-25.9 17.8-40.2 49.1-14.3 31.3-14.3 72.4 0 46.5 16.1 79.6 16.1 33.1 45.6 50.9 29.5 17.9 67.9 17.9 69.7 0 121.6-51.8l72.4 71.5q-35.8 40.2-88.5 61.7-51.9 21.4-117.1 21.4-76.9 0-133.2-30.4-56.3-30.4-87.6-84.9-30.4-55.4-30.4-127.8 0-74.2 31.3-128.7 31.3-55.5 86.7-85.8 56.3-30.4 129.6-31.3 84.9 0 138.6 35.7 54.5 34.9 78.6 99.2 25 63.5 18.8 151.1h-370.1zm875.1-108.2l-92.9 66.2q-18.8-24.1-46.5-37.5-27.7-13.5-63.5-13.5-33.1 0-59 17-25.9 16.1-41.1 46.5-14.3 29.5-14.3 69.7 0 39.4 14.3 69.7 15.2 30.4 41.1 47.4 25.9 16.1 59 16.1 36.7 0 65.3-13.4 28.6-14.3 46.5-42l94.7 62.6q-30.4 49.1-85.8 75.9-54.5 26.9-126.9 26.9-73.3 0-128.8-30.4-55.4-30.4-86.7-84.9-30.4-55.5-30.4-127.9 0-73.3 30.4-128.7 31.3-55.4 86.7-85.8 56.4-31.3 128.8-31.3 69.7 0 123.3 25.9 53.6 25.1 85.8 71.5z"/>
</svg>