<?xml version="1.0" encoding="UTF-8"?>
<!-- Generator: Adobe Illustrator 16.0.4, SVG Export Plug-In . SVG Version: 6.00 Build 0)  -->
<!DOCTYPE svg PUBLIC "-//W3C//DTD SVG 1.1//EN" "http://www.w3.org/Graphics/SVG/1.1/DTD/svg11.dtd">
<svg version="1.1" id="Camada_1" xmlns="http://www.w3.org/2000/svg" xmlns:xlink="http://www.w3.org/1999/xlink" x="0px" y="0px" width="122px" height="79.725px" viewBox="0 0 122 79.725" enable-background="new 0 0 122 79.725" xml:space="preserve">
<g>
	<path fill="#B20000" d="M92.614,22.066c0.095-2.893,1.349-4.049,5.491-4.049h22.839V9.914H99.553   c-10.12,0-15.805,4.342-15.805,12.538c0,16.01,29.195,12.736,29.195,21.222c0,2.894-1.544,4.438-5.491,4.438H77.581   c3.021-3.692,4.865-8.45,4.865-13.895c0-13.693-8.863-25.265-23.891-25.265c-13.587,0-23.316,10.219-23.316,25.458v3.788H24.947   c-7.994,0-15.895-5.208-15.895-15.047c0-9.837,7.9-15.047,15.895-15.047h6.554V0h-8.092C12.62,0,0.191,8.295,0.191,23.15   c0,14.849,12.429,23.147,23.218,23.147h11.83v33.631h8.479V46.297h16.141v-8.1H43.719v-2.242c0-12.732,6.745-18.902,14.837-18.902   c9.054,0,15.413,6.65,15.413,16.107c0,8.121-4.396,13.393-11.341,14.952H51.812v8.1h55.64c8.191,0,14.356-4.15,14.356-12.925   C121.809,26.695,92.518,30.071,92.614,22.066z"/>
	<g id="Camada_86_1_">
		<g>
			<path fill="#1D1D1B" d="M58.76,68.287c-0.456,0.199-1.363,0.402-2.527,0.402c-2.7,0-4.729-1.521-4.729-4.328     c0-2.68,2.029-4.5,4.998-4.5c1.193,0,1.943,0.229,2.274,0.379l-0.3,0.902c-0.471-0.201-1.139-0.355-1.934-0.355     c-2.24,0-3.731,1.285-3.731,3.535c0,2.094,1.347,3.441,3.675,3.441c0.753,0,1.52-0.139,2.017-0.352L58.76,68.287z"/>
			<path fill="#1D1D1B" d="M60.802,65.693c0.03,1.51,1.108,2.135,2.358,2.135c0.895,0,1.433-0.139,1.902-0.314l0.214,0.797     c-0.438,0.176-1.194,0.379-2.288,0.379c-2.115,0-3.379-1.242-3.379-3.098c0-1.852,1.223-3.316,3.226-3.316     c2.244,0,2.841,1.766,2.841,2.896c0,0.229-0.031,0.41-0.045,0.521H60.802z M64.466,64.893c0.014-0.715-0.324-1.814-1.731-1.814     c-1.265,0-1.816,1.039-1.919,1.814H64.466z"/>
			<path fill="#1D1D1B" d="M67.219,64.08c0-0.639-0.014-1.156-0.054-1.662h1.108l0.069,1.014h0.029     c0.342-0.58,1.133-1.156,2.272-1.156c0.948,0,2.428,0.51,2.428,2.617v3.674h-1.25v-3.543c0-0.994-0.411-1.82-1.589-1.82     c-0.824,0-1.464,0.52-1.678,1.145c-0.053,0.137-0.084,0.332-0.084,0.521v3.697h-1.253V64.08z"/>
			<path fill="#1D1D1B" d="M76.55,60.648v1.77h1.789v0.848H76.55v3.318c0,0.76,0.242,1.195,0.938,1.195     c0.323,0,0.566-0.039,0.721-0.074l0.062,0.834c-0.243,0.09-0.626,0.15-1.112,0.15c-0.581,0-1.049-0.158-1.345-0.469     c-0.357-0.33-0.487-0.877-0.487-1.6v-3.355h-1.065v-0.848h1.065v-1.477L76.55,60.648z"/>
			<path fill="#1D1D1B" d="M79.744,64.332c0-0.721-0.012-1.344-0.058-1.914h1.096l0.04,1.205h0.061     c0.312-0.826,1.061-1.348,1.9-1.348c0.139,0,0.242,0.018,0.354,0.039v1.053c-0.128-0.021-0.255-0.039-0.425-0.039     c-0.878,0-1.505,0.6-1.673,1.441c-0.03,0.148-0.059,0.328-0.059,0.52v3.277h-1.237V64.332z"/>
			<path fill="#1D1D1B" d="M90.468,65.439c0,2.273-1.765,3.268-3.422,3.268c-1.861,0-3.297-1.223-3.297-3.168     c0-2.057,1.506-3.264,3.408-3.264C89.129,62.275,90.468,63.559,90.468,65.439z M85.019,65.506c0,1.346,0.86,2.359,2.081,2.359     c1.194,0,2.087-1,2.087-2.387c0-1.041-0.58-2.361-2.058-2.361S85.019,64.332,85.019,65.506z"/>
			<path fill="#1D1D1B" d="M52.066,71.26c0.6-0.09,1.381-0.17,2.378-0.17c1.216,0,2.115,0.26,2.683,0.719     c0.522,0.404,0.836,1.027,0.836,1.789c0,0.779-0.253,1.387-0.738,1.832c-0.649,0.619-1.718,0.941-2.923,0.941     c-0.372,0-0.713-0.016-0.994-0.08v3.434h-1.241V71.26z M53.308,75.391c0.27,0.064,0.606,0.09,1.02,0.09     c1.494,0,2.4-0.652,2.4-1.836c0-1.125-0.896-1.674-2.258-1.674c-0.54,0-0.951,0.039-1.162,0.09V75.391z"/>
			<path fill="#1D1D1B" d="M63.018,79.725l-0.1-0.775h-0.04c-0.383,0.48-1.123,0.914-2.104,0.914c-1.392,0-2.1-0.877-2.1-1.766     c0-1.49,1.475-2.301,4.133-2.289V75.68c0-0.504-0.157-1.42-1.562-1.42c-0.642,0-1.307,0.176-1.79,0.457l-0.283-0.738     c0.57-0.334,1.393-0.545,2.253-0.545c2.105,0,2.617,1.283,2.617,2.514v2.305c0,0.529,0.025,1.053,0.112,1.473H63.018z      M62.835,76.586c-1.365-0.027-2.913,0.191-2.913,1.385c0,0.725,0.538,1.068,1.177,1.068c0.897,0,1.467-0.508,1.663-1.031     c0.045-0.115,0.073-0.24,0.073-0.354V76.586z"/>
			<path fill="#1D1D1B" d="M71.808,78.047c0,0.637,0.015,1.193,0.056,1.678h-1.106l-0.07-1.002h-0.028     c-0.323,0.492-1.052,1.141-2.274,1.141c-1.075,0-2.369-0.533-2.369-2.695v-3.596h1.248v3.406c0,1.17,0.399,1.959,1.536,1.959     c0.838,0,1.419-0.525,1.648-1.018c0.065-0.166,0.11-0.367,0.11-0.576v-3.771h1.25V78.047z"/>
			<path fill="#1D1D1B" d="M73.879,70.703h1.252v9.021h-1.252V70.703z"/>
			<path fill="#1D1D1B" d="M81.04,79.725l-0.101-0.775h-0.043c-0.384,0.48-1.123,0.914-2.104,0.914     c-1.389,0-2.099-0.877-2.099-1.766c0-1.49,1.476-2.301,4.129-2.289V75.68c0-0.504-0.155-1.42-1.559-1.42     c-0.642,0-1.309,0.176-1.792,0.457l-0.282-0.738c0.569-0.334,1.392-0.545,2.258-0.545c2.101,0,2.613,1.283,2.613,2.514v2.305     c0,0.529,0.03,1.053,0.114,1.473H81.04z M80.853,76.586c-1.361-0.027-2.911,0.191-2.911,1.385c0,0.725,0.541,1.068,1.181,1.068     c0.892,0,1.462-0.508,1.66-1.031c0.04-0.115,0.07-0.24,0.07-0.354V76.586z"/>
			<path fill="#1D1D1B" d="M86.958,78.377c0.557,0.307,1.365,0.561,2.216,0.561c1.265,0,2.005-0.6,2.005-1.463     c0-0.803-0.514-1.256-1.805-1.705c-1.562-0.492-2.526-1.215-2.526-2.426c0-1.334,1.233-2.324,3.095-2.324     c0.978,0,1.689,0.199,2.117,0.42l-0.344,0.898c-0.314-0.148-0.95-0.406-1.819-0.406c-1.306,0-1.802,0.699-1.802,1.283     c0,0.801,0.585,1.195,1.906,1.656c1.618,0.559,2.44,1.254,2.44,2.512c0,1.326-1.096,2.467-3.352,2.467     c-0.922,0-1.933-0.238-2.443-0.545L86.958,78.377z"/>
			<path fill="#1D1D1B" d="M100.394,76.598c0,2.273-1.763,3.266-3.422,3.266c-1.861,0-3.296-1.219-3.296-3.166     c0-2.053,1.507-3.264,3.408-3.264C99.058,73.434,100.394,74.717,100.394,76.598z M94.939,76.66c0,1.348,0.866,2.363,2.086,2.363     c1.196,0,2.086-1.006,2.086-2.391c0-1.039-0.581-2.361-2.056-2.361C95.58,74.271,94.939,75.494,94.939,76.66z"/>
			<path fill="#1D1D1B" d="M107.719,78.047c0,0.637,0.015,1.193,0.06,1.678h-1.111l-0.07-1.002h-0.025     c-0.328,0.492-1.053,1.141-2.277,1.141c-1.076,0-2.371-0.533-2.371-2.695v-3.596h1.252v3.406c0,1.17,0.396,1.959,1.535,1.959     c0.837,0,1.42-0.525,1.645-1.018c0.07-0.166,0.114-0.367,0.114-0.576v-3.771h1.25V78.047z"/>
			<path fill="#1D1D1B" d="M109.01,79.074l3.114-3.619c0.291-0.33,0.578-0.627,0.891-0.955v-0.025h-3.721v-0.902h5.24l-0.014,0.699     l-3.068,3.57c-0.281,0.344-0.566,0.65-0.876,0.969v0.023h4.017v0.891h-5.583V79.074z"/>
			<path fill="#1D1D1B" d="M119.675,79.725l-0.097-0.775h-0.044c-0.386,0.48-1.123,0.914-2.101,0.914     c-1.393,0-2.104-0.877-2.104-1.766c0-1.49,1.478-2.301,4.133-2.289V75.68c0-0.504-0.153-1.42-1.561-1.42     c-0.643,0-1.309,0.176-1.791,0.457l-0.282-0.738c0.565-0.334,1.392-0.545,2.256-0.545c2.103,0,2.615,1.283,2.615,2.514v2.305     c0,0.529,0.025,1.053,0.11,1.473H119.675z M119.489,76.586c-1.363-0.027-2.91,0.191-2.91,1.385c0,0.725,0.538,1.068,1.179,1.068     c0.895,0,1.464-0.508,1.659-1.031c0.045-0.115,0.072-0.24,0.072-0.354V76.586z"/>
		</g>
	</g>
</g>
</svg>