<svg version="1.2" xmlns="http://www.w3.org/2000/svg" viewBox="0 0 1920 1080" width="1920" height="1080"><style>.a{fill:#bc0000}</style><path  d="m69.3 668v-630h479.7v114.3h-337.5v142.2h303.3v114.3h-303.3v144.9h347.4v114.3zm757.8-595.8v431.1q0 32.4 12.6 45.9 12.6 12.6 34.2 11.7 13.5 0 29.7-4.5 16.2-4.5 35.1-13.5l28.8 97.2q-27 16.2-59.4 25.2-32.4 9-66.6 9-43.2 0-78.3-16.2-34.2-16.2-54-49.5-19.8-33.3-19.8-82.8v-453.6zm-205.2 225.9v-92.7h336.6v92.7zm498.6 89.1h243q-0.9-33.3-14.4-56.7-12.6-24.3-36.9-37.8-24.3-13.5-55.8-13.5-35.1 0-61.2 18-26.1 18-40.5 49.5-14.4 31.5-14.4 72.9 0 46.8 16.2 80.1 16.2 33.3 45.9 51.3 29.7 18 68.4 18 70.2 0 122.4-52.2l72.9 72q-36 40.5-89.1 62.1-52.2 21.6-117.9 21.6-77.4 0-134.1-30.6-56.7-30.6-88.2-85.5-30.6-55.8-30.6-128.7 0-74.7 31.5-129.6 31.5-55.8 87.3-86.4 56.7-30.6 130.5-31.5 85.5 0 139.5 36 54.9 35.1 79.2 99.9 25.2 63.9 18.9 152.1h-372.6zm881.1-108.9l-93.6 66.6q-18.9-24.3-46.8-37.8-27.9-13.5-63.9-13.5-33.3 0-59.4 17.1-26.1 16.2-41.4 46.8-14.4 29.7-14.4 70.2 0 39.6 14.4 70.2 15.3 30.6 41.4 47.7 26.1 16.2 59.4 16.2 36.9 0 65.7-13.5 28.8-14.4 46.8-42.3l95.4 63q-30.6 49.5-86.4 76.5-54.9 27-127.8 27-73.8 0-129.6-30.6-55.8-30.6-87.3-85.5-30.6-55.8-30.6-128.7 0-73.8 30.6-129.6 31.5-55.8 87.3-86.4 56.7-31.5 129.6-31.5 70.2 0 124.2 26.1 54 25.2 86.4 72z"/><path class="a" d="m114.5 1064v-231h52.2v231zm160.7-218.5v158.1q0 11.9 4.6 16.8 4.6 4.7 12.5 4.3 5 0 10.9-1.6 6-1.7 12.9-5l10.5 35.7q-9.9 5.9-21.7 9.2-11.9 3.3-24.5 3.3-15.8 0-28.7-5.9-12.5-6-19.8-18.2-7.2-12.2-7.2-30.3v-166.4zm-75.3 82.9v-34h123.5v34zm265.3 58.7h-45.2q-14.6 0-21.8 5-7.3 4.9-7.3 15.8 0 10.6 7.3 16.8 7.6 6 20.4 6 11.3 0 19.8-3.7 9-3.9 14.6-10.2 5.9-6.6 7.2-15.2l7.6 28.4q-7.6 17.8-23.7 27.1-16.2 9.2-39.6 9.2-18.9 0-32.7-7.3-13.5-7.2-21.1-19.8-7.3-12.5-7.3-28.3 0-24.8 17.5-39 17.5-14.2 50.2-14.5h54.1zm-5 76.9l-0.3-109.9q0-14.5-9.6-22.8-9.2-8.2-27.4-8.2-11.8 0-25.4 4.3-13.5 3.9-27.4 11.5l-15.8-33q13.2-6.9 25.7-11.5 12.6-4.6 25.8-6.9 13.2-2.7 28.7-2.7 36 0 55.4 16.8 19.5 16.9 19.8 46.6l0.4 115.8zm220.1 0v-97q0-17.5-9.6-27.4-9.2-9.9-25.4-9.9-18.8 0.3-29.7 13.5-10.9 13.2-10.9 33.3h-12.9q0-31 8.9-51.1 9.3-20.5 25.8-30.4 16.8-10.2 39.6-10.2 19.8 0 34.3 8.6 14.8 8.2 22.8 23.4 7.9 15.2 7.9 36v111.2zm-126.4 0v-177.2h50.8v177.2zm349.5 0v-97q0-17.5-9.6-27.4-9.2-9.9-25.4-9.9-19.1 0.3-30 13.5-10.9 13.2-10.9 33.3h-12.6q0-31 9-51.1 8.9-20.5 25.4-30.4 16.8-10.2 39.6-10.2 20.1 0 34.6 8.6 14.9 8.2 22.8 23.4 7.9 15.2 7.9 36v111.2zm-126.7 0v-244.9h50.8v244.9zm329-76.9h-45.2q-14.5 0-21.8 5-7.2 4.9-7.2 15.8 0 10.6 7.2 16.8 7.6 6 20.5 6 11.2 0 19.8-3.7 8.9-3.9 14.5-10.2 5.9-6.6 7.3-15.2l7.5 28.4q-7.5 17.8-23.7 27.1-16.2 9.2-39.6 9.2-18.8 0-32.7-7.3-13.5-7.2-21.1-19.8-7.3-12.5-7.3-28.3 0-24.8 17.5-39 17.5-14.2 50.2-14.5h54.1zm-4.9 76.9l-0.4-109.9q0-14.5-9.5-22.8-9.3-8.2-27.4-8.2-11.9 0-25.4 4.3-13.6 3.9-27.4 11.5l-15.9-33q13.2-6.9 25.8-11.5 12.5-4.6 25.7-7 13.2-2.6 28.7-2.6 36 0 55.5 16.8 19.4 16.9 19.8 46.6l0.3 115.8zm120.4-103h89.1q-0.3-12.2-5.2-20.8-4.7-8.9-13.6-13.8-8.9-5-20.4-5-12.9 0-22.5 6.6-9.5 6.6-14.8 18.2-5.3 11.5-5.3 26.7 0 17.2 5.9 29.4 6 12.2 16.9 18.8 10.9 6.6 25 6.6 25.8 0 44.9-19.1l26.8 26.4q-13.2 14.8-32.7 22.7-19.2 8-43.2 8-28.4 0-49.2-11.3-20.8-11.2-32.4-31.3-11.2-20.5-11.2-47.2 0-27.4 11.6-47.5 11.5-20.5 32-31.7 20.8-11.2 47.8-11.6 31.4 0 51.2 13.2 20.1 12.9 29 36.7 9.3 23.4 7 55.7h-136.7zm22.5-99.3l36.9-49.8 44.9 17.5-44.9 35.6zm272.3 202.3v-97q0-17.5-9.3-27.4-8.9-10.2-24.7-10.2-18.5 0.6-29 13.8-10.6 13.2-10.6 33.3h-12.9q0-31 8.9-51.1 8.9-20.5 25.1-30.4 16.5-10.2 39-10.2 19.8 0 33.9 8.6 14.6 8.2 22.2 23.4 7.9 15.2 7.9 36v111.2zm124.1 0v-97q0-17.5-9.3-27.4-9.2-10.2-25.1-10.2-18.1 0.6-28.7 13.8-10.5 13.2-10.5 33.3h-12.9q0-31 8.9-51.1 8.9-20.5 25.1-30.4 16.5-10.2 38.9-10.2 19.8 0 34 8.6 14.5 8.2 22.1 23.4 8 15.2 8 36v111.2zm-248.5 0v-177.2h50.8v177.2z"/></svg>